<svg width="24" height="24" viewBox="0 0 24 24" fill="none" xmlns="http://www.w3.org/2000/svg">
  <path d="M7 17C7 15.8954 6.10457 15 5 15C3.89543 15 3 15.8954 3 17C3 18.1046 3.89543 19 5 19C6.10457 19 7 18.1046 7 17Z" stroke="#6b7280" stroke-width="2"/>
  <path d="M21 17C21 15.8954 20.1046 15 19 15C17.8954 15 17 15.8954 17 17C17 18.1046 17.8954 19 19 19C20.1046 19 21 18.1046 21 17Z" stroke="#6b7280" stroke-width="2"/>
  <path d="M7 17H17M5 17H3M21 17H19" stroke="#6b7280" stroke-width="2"/>
  <path d="M7 6H17L19 10V17H5V10L7 6Z" stroke="#6b7280" stroke-width="2" stroke-linejoin="round"/>
  <path d="M7 6V10M17 6V10" stroke="#6b7280" stroke-width="2"/>
</svg>